<svg xmlns="http://www.w3.org/2000/svg" viewBox="0 0 2500 2500">
  <path fill="#0088ff" d="M1250 0c690.355 0 1250 559.645 1250 1250s-559.645 1250-1250 1250S0 1940.355 0 1250 559.645 0 1250 0zm0 460.526c-436.008 0-789.474 353.466-789.474 789.474 0 436.008 353.466 789.474 789.474 789.474 436.008 0 789.474-353.466 789.474-789.474 0-436.008-353.466-789.474-789.474-789.474zM1114.717 684.21c251.272 0 491.547 165.733 559.398 405.021l-246.333 60.183c-24.84-91.134-118.892-167.585-212.87-167.585-70.67 0-163.551 40.245-163.551 161.463 0 193.361 475.98 135.093 475.98 471.972 0 129.588-75.385 304.81-309.474 304.81-285.541 0-514.887-172.932-588.665-430.706l245.02-61.428c30.297 101.488 126.96 177.306 235.319 177.306 68.614 0 167.069-36.877 167.069-166.758 0-192.179-475.98-132.883-475.98-474.182 0-128.536 78.361-280.096 314.089-280.096z"/>
</svg>
